<svg xmlns="http://www.w3.org/2000/svg" width="1200" height="400" viewBox="0 0 1200 400">
  <defs>
    <radialGradient id="glow1" cx="50%" cy="50%" r="50%">
      <stop offset="0%" stop-color="#4f8ef7" stop-opacity="0.3"/>
      <stop offset="100%" stop-color="#4f8ef7" stop-opacity="0"/>
    </radialGradient>
    <radialGradient id="glow2" cx="50%" cy="50%" r="50%">
      <stop offset="0%" stop-color="#34d399" stop-opacity="0.2"/>
      <stop offset="100%" stop-color="#34d399" stop-opacity="0"/>
    </radialGradient>
    <linearGradient id="textGrad" x1="0%" y1="0%" x2="100%" y2="0%">
      <stop offset="0%" stop-color="#7ab3ff"/>
      <stop offset="50%" stop-color="#4f8ef7"/>
      <stop offset="100%" stop-color="#6ee7b7"/>
    </linearGradient>
    <linearGradient id="lineGrad" x1="0%" y1="0%" x2="0%" y2="100%">
      <stop offset="0%" stop-color="transparent"/>
      <stop offset="30%" stop-color="#4f8ef7"/>
      <stop offset="70%" stop-color="#34d399"/>
      <stop offset="100%" stop-color="transparent"/>
    </linearGradient>
    <filter id="blur">
      <feGaussianBlur stdDeviation="2"/>
    </filter>
  </defs>

  <!-- Background -->
  <rect width="1200" height="400" fill="#07090e"/>

  <!-- Grid lines (subtle) -->
  <g stroke="#1a2744" stroke-width="0.5" opacity="0.4">
    <line x1="0" y1="80" x2="1200" y2="80"/>
    <line x1="0" y1="160" x2="1200" y2="160"/>
    <line x1="0" y1="240" x2="1200" y2="240"/>
    <line x1="0" y1="320" x2="1200" y2="320"/>
    <line x1="200" y1="0" x2="200" y2="400"/>
    <line x1="400" y1="0" x2="400" y2="400"/>
    <line x1="600" y1="0" x2="600" y2="400"/>
    <line x1="800" y1="0" x2="800" y2="400"/>
    <line x1="1000" y1="0" x2="1000" y2="400"/>
  </g>

  <!-- Graph nodes (right side visual) -->
  <!-- Glow pools -->
  <ellipse cx="820" cy="200" rx="160" ry="130" fill="url(#glow1)"/>
  <ellipse cx="950" cy="140" rx="100" ry="80" fill="url(#glow2)"/>

  <!-- Edges -->
  <g stroke="#4f8ef7" stroke-width="1" opacity="0.35">
    <line x1="820" y1="200" x2="920" y2="120"/>
    <line x1="820" y1="200" x2="960" y2="230"/>
    <line x1="820" y1="200" x2="760" y2="110"/>
    <line x1="820" y1="200" x2="730" y2="280"/>
    <line x1="920" y1="120" x2="960" y2="230"/>
    <line x1="920" y1="120" x2="760" y2="110"/>
    <line x1="960" y1="230" x2="1060" y2="190"/>
    <line x1="760" y1="110" x2="700" y2="170"/>
    <line x1="730" y1="280" x2="800" y2="320"/>
    <line x1="1060" y1="190" x2="1080" y2="290"/>
  </g>

  <!-- Node glows (blurred) -->
  <circle cx="820" cy="200" r="28" fill="#4f8ef7" opacity="0.15" filter="url(#blur)"/>
  <circle cx="920" cy="120" r="20" fill="#34d399" opacity="0.15" filter="url(#blur)"/>
  <circle cx="960" cy="230" r="16" fill="#4f8ef7" opacity="0.12" filter="url(#blur)"/>
  <circle cx="760" cy="110" r="14" fill="#7ab3ff" opacity="0.12" filter="url(#blur)"/>
  <circle cx="730" cy="280" r="12" fill="#34d399" opacity="0.1" filter="url(#blur)"/>
  <circle cx="1060" cy="190" r="10" fill="#4f8ef7" opacity="0.1" filter="url(#blur)"/>

  <!-- Nodes -->
  <circle cx="820" cy="200" r="12" fill="#4f8ef7"/>
  <circle cx="920" cy="120" r="9" fill="#34d399"/>
  <circle cx="960" cy="230" r="7" fill="#4f8ef7"/>
  <circle cx="760" cy="110" r="6" fill="#7ab3ff"/>
  <circle cx="730" cy="280" r="5" fill="#34d399"/>
  <circle cx="1060" cy="190" r="5" fill="#4f8ef7"/>
  <circle cx="800" cy="320" r="4" fill="#6ee7b7"/>
  <circle cx="1080" cy="290" r="4" fill="#4f8ef7"/>
  <circle cx="700" cy="170" r="4" fill="#7ab3ff"/>
  <circle cx="1100" cy="130" r="3" fill="#34d399"/>

  <!-- Sidebar panel -->
  <rect x="0" y="0" width="2" height="400" fill="url(#lineGrad)"/>
  <rect x="2" y="0" width="480" height="400" fill="#0c1220" opacity="0.97"/>
  <rect x="482" y="0" width="1" height="400" fill="#1a2744"/>

  <!-- Sidebar header area -->
  <rect x="2" y="0" width="480" height="70" fill="#0d1628"/>

  <!-- AXON brand name -->
  <text x="32" y="46" font-family="'Segoe UI', system-ui, sans-serif" font-weight="800" font-size="38" fill="url(#textGrad)" letter-spacing="-0.5">AXON</text>

  <!-- Pills -->
  <rect x="32" y="56" width="78" height="17" rx="8.5" fill="#1a2d4f" stroke="#253759" stroke-width="1"/>
  <text x="71" y="68.5" font-family="'Courier New', monospace" font-size="10" fill="#7ab3ff" text-anchor="middle">gpt2-small</text>

  <rect x="118" y="56" width="54" height="17" rx="8.5" fill="#1a2d4f" stroke="#253759" stroke-width="1"/>
  <text x="145" y="68.5" font-family="'Courier New', monospace" font-size="10" fill="#7ab3ff" text-anchor="middle">layer 8</text>

  <!-- Sidebar content items -->
  <text x="32" y="104" font-family="'Segoe UI', system-ui, sans-serif" font-size="9.5" fill="#3d5a7a" font-weight="600" letter-spacing="1.2">PROMPT</text>

  <rect x="22" y="112" width="446" height="46" rx="8" fill="#101828" stroke="#1a2744" stroke-width="1"/>
  <text x="36" y="132" font-family="'Segoe UI', system-ui, sans-serif" font-size="12.5" fill="#8fa8c8">The capital of France is</text>
  <rect x="22" y="166" width="80" height="28" rx="6" fill="#4f8ef7"/>
  <text x="62" y="184" font-family="'Segoe UI', system-ui, sans-serif" font-size="11.5" fill="white" font-weight="600" text-anchor="middle">▶  Generate</text>

  <!-- Active concepts section -->
  <text x="32" y="218" font-family="'Segoe UI', system-ui, sans-serif" font-size="9.5" fill="#3d5a7a" font-weight="600" letter-spacing="1.2">ACTIVE CONCEPTS</text>

  <!-- Concept bars -->
  <text x="32" y="238" font-family="'Segoe UI', system-ui, sans-serif" font-size="11" fill="#8fa8c8">European geography</text>
  <rect x="200" y="228" width="200" height="3" rx="1.5" fill="#162035"/>
  <rect x="200" y="228" width="185" height="3" rx="1.5" fill="url(#textGrad)"/>
  <text x="420" y="238" font-family="'Courier New', monospace" font-size="10" fill="#34d399" text-anchor="end">0.97</text>

  <text x="32" y="258" font-family="'Segoe UI', system-ui, sans-serif" font-size="11" fill="#8fa8c8">Capital cities</text>
  <rect x="200" y="248" width="200" height="3" rx="1.5" fill="#162035"/>
  <rect x="200" y="248" width="155" height="3" rx="1.5" fill="url(#textGrad)"/>
  <text x="420" y="258" font-family="'Courier New', monospace" font-size="10" fill="#34d399" text-anchor="end">0.81</text>

  <text x="32" y="278" font-family="'Segoe UI', system-ui, sans-serif" font-size="11" fill="#8fa8c8">French language &amp; culture</text>
  <rect x="200" y="268" width="200" height="3" rx="1.5" fill="#162035"/>
  <rect x="200" y="268" width="120" height="3" rx="1.5" fill="url(#textGrad)"/>
  <text x="420" y="278" font-family="'Courier New', monospace" font-size="10" fill="#34d399" text-anchor="end">0.63</text>

  <text x="32" y="298" font-family="'Segoe UI', system-ui, sans-serif" font-size="11" fill="#8fa8c8">Proper nouns / place names</text>
  <rect x="200" y="288" width="200" height="3" rx="1.5" fill="#162035"/>
  <rect x="200" y="288" width="88" height="3" rx="1.5" fill="url(#textGrad)"/>
  <text x="420" y="298" font-family="'Courier New', monospace" font-size="10" fill="#34d399" text-anchor="end">0.46</text>

  <!-- Footer -->
  <rect x="2" y="380" width="480" height="20" fill="#0d1628"/>
  <circle cx="22" cy="390" r="4" fill="#34d399"/>
  <text x="34" y="394" font-family="'Courier New', monospace" font-size="10" fill="#3d5a7a">14 nodes  ·  42 edges</text>
  <text x="440" y="394" font-family="'Courier New', monospace" font-size="10" fill="#3d5a7a" text-anchor="end">AXON v3</text>

  <!-- Tagline bottom right -->
  <text x="840" y="370" font-family="'Segoe UI', system-ui, sans-serif" font-size="13" fill="#3d5a7a" text-anchor="middle">Real-time SAE feature activation · GPT-2 layer 8 · 3D force graph</text>
</svg>
